<svg width="310" height="600s" viewBox="0 0 299 259" fill="none" xmlns="http://www.w3.org/2000/svg">
<path d="M285.342 109.039C285.342 99.8641 282.774 91.2048 278.833 83.5803C274.544 75.2856 266.999 66.1679 259.307 60.9709C250.451 54.9873 239.627 52.0632 228.132 52.0632C218.356 52.0632 209.047 54.3952 201.069 58.8351C192.908 63.374 183.771 71.601 178.801 79.4721C173.396 88.0359 171.951 98.1642 171.951 109.041C171.951 119.227 174.014 127.794 178.801 135.997C183.984 144.875 193.694 154.433 202.782 159.287C210.565 163.445 218.931 164.534 228.365 164.534C237.294 164.505 246.089 162.355 254.025 158.262C265.507 152.338 274.792 143.85 279.864 131.883C282.675 125.231 285.342 116.721 285.342 109.039Z" fill="#057733"/>
<path d="M187.817 128.912C187.817 122.361 184.566 116.158 190.138 105.693C195.71 95.228 194.318 85.9227 194.318 83.9883C194.318 82.5767 197.027 68.123 198.499 60.3735C195.824 62.0799 193.271 63.9701 190.859 66.0306C190.067 69.2742 189.187 72.9484 188.739 75.0286C187.81 79.34 184.559 82.4412 183.63 84.7662C182.701 87.0913 178.058 94.457 178.522 100.272C178.986 106.087 179.911 114.434 177.593 118.013C175.275 121.591 180.38 129.669 179.915 134.547C179.833 135.415 179.703 136.326 179.548 137.241C181.882 140.969 184.962 144.772 188.416 148.257C189.385 145.939 190.131 143.753 190.131 142.527C190.138 139.03 187.817 135.462 187.817 128.912Z" fill="#25B656"/>
<path d="M231.151 137.88C231.888 134.817 232.23 125.937 231.151 118.417C230.073 110.897 232.348 101.529 234.414 96.7697C236.48 92.0102 235.06 74.2609 235.05 67.9092C235.039 62.1931 234.808 56.7148 234.504 52.3721C232.408 52.1649 230.284 52.0618 228.132 52.063C226.28 52.063 224.446 52.1463 222.631 52.313C221.589 55.6278 220.646 58.7376 220.787 60.5192C221.134 65.0442 220.176 70.3975 220.843 78.8953C221.509 87.3932 225.546 95.2781 220.777 109.133C216.007 122.987 218.415 134.987 218.613 137.502C218.736 139.085 217.745 153.407 216.976 163.808C220.048 164.24 223.145 164.477 226.248 164.516C226.477 160.41 226.769 155.621 227.038 152.815C227.571 147.177 230.41 140.945 231.151 137.88Z" fill="#25B656"/>
<path d="M207.474 137.155C207.474 130.796 207.608 127.778 210.397 116.915C213.319 105.54 210.853 95.3216 210.853 93.4394C210.853 92.4687 210.661 86.0771 212.15 75.2664C212.604 71.976 216.233 61.0732 216.632 58.2047C216.888 56.5183 217.01 54.8141 216.995 53.1084C212.978 53.8718 209.061 55.0857 205.316 56.727C204.675 62.8356 203.432 74.2506 202.798 77.2736C201.921 81.4583 201.144 85.386 200.267 87.6433C199.39 89.9006 196.967 103.868 197.219 103.444C198.608 101.079 200.838 123.239 198.287 127.58C196.203 131.107 196.367 143.64 195.927 148.375C195.754 150.261 195.188 152.077 194.571 153.794C197.136 155.87 199.885 157.708 202.783 159.286C204.048 159.962 205.349 160.568 206.681 161.101C206.788 156.981 206.908 152.089 206.908 150.264C206.908 146.878 207.474 143.513 207.474 137.155Z" fill="#25B656"/>
<path d="M252.646 145.588C251.736 141.61 254.922 136.637 255.377 131.334C255.594 128.811 253.957 124.79 252.182 121.263C249.784 116.504 249.515 111.314 251.488 106.455C253.46 101.597 255.422 95.8547 254.688 93.5384C253.321 89.2287 255.863 82.1026 255.382 79.781C254.901 77.4595 255.363 72.3145 254.453 67.8468C254.051 65.8674 255.25 62.4936 256.711 59.3386C252.87 57.103 248.754 55.377 244.468 54.2041C244.042 56.1384 243.556 57.9443 243.078 58.8923C241.714 61.5438 238.982 72.1531 239.892 75.3029C240.802 78.4527 240.212 90.8835 239.719 93.7086C239.225 96.5336 244.233 100.173 240.356 106.969C236.478 113.765 238.762 120.727 238.534 123.38C238.307 126.033 240.128 131.501 240.811 136.474C241.493 141.447 237.397 149.403 236.485 153.878C236.017 156.184 235.73 160.337 235.617 164.049C242.038 163.186 248.263 161.229 254.023 158.264L254.5 158.012C254.644 153.862 253.408 148.915 252.646 145.588Z" fill="#25B656"/>
<path d="M277.015 132.081C276.694 129.695 277.852 121.433 278.555 116.825C278.824 115.007 278.655 113.151 278.062 111.411C277.569 109.931 276.989 107.603 276.562 104.09C275.653 96.6498 275.2 93.1058 276.562 87.4383C277.075 85.2407 277.309 82.9869 277.256 80.7307C273.901 75.0683 269.234 69.2705 264.199 64.7976C262.879 67.1886 261.79 69.6595 261.382 71.849C260.023 79.1123 266.142 81.9461 261.382 89.9178C256.623 97.8896 266.822 115.073 264.782 120.388C264.015 122.385 263.058 125.375 262.16 128.328C260.276 134.529 261.118 141.044 264.542 146.826L264.603 146.93C264.871 147.364 265.028 147.858 265.058 148.367C265.088 148.876 264.992 149.385 264.777 149.847C264.482 150.49 264.115 151.304 263.735 152.2C268.885 148.305 273.285 143.654 276.671 138.122C276.987 135.769 277.208 133.52 277.015 132.081Z" fill="#25B656"/>
<path d="M298.4 163.242H289.932V258.038H298.4V163.242Z" fill="#FF9F5B"/>
<path d="M290.993 163.242V197.24C280.034 197.135 263.012 197.034 258.526 197.348C251.762 197.828 209.244 192.547 203.449 192.067C198.451 191.651 143.128 190.881 128.009 190.675V163.242H290.993Z" fill="#ED8840"/>
<path d="M252.731 200.712L290.993 199.472V228.513C272.996 228.386 230.874 228.091 225.191 228.091C218.633 228.091 142.434 230.059 128.009 230.431V196.353C145.811 196.248 189.753 198.722 192.925 199.119C196.791 199.596 252.731 200.712 252.731 200.712Z" fill="#ED8840"/>
<path d="M290.993 232.704V258.038H128.009V233.314C144.989 233.031 213.673 235.368 218.748 234.948C223.394 234.557 271.861 232.23 290.993 232.704Z" fill="#ED8840"/>
<path d="M128.009 163.243H119.541V258.038H128.009V163.243Z" fill="#FF9F5B"/>
<path d="M290.993 195.933V197.914L253.534 199.119L200.066 193.981L128.009 193.387V188.576C138.693 188.78 196.158 189.915 202.001 190.802C208.441 191.756 248.369 195.603 253.857 195.927C258.634 196.207 284.441 195.987 290.993 195.933Z" fill="#F59C4F"/>
<path d="M290.993 226.307V229.56L234.209 229.877L128.009 231.432V228.571C138.715 228.396 227.18 226.949 238.075 226.345C247.902 225.805 281.103 226.18 290.993 226.307Z" fill="#F59C4F"/>
<path d="M134.36 170.454C134.36 170.265 134.304 170.081 134.198 169.924C134.093 169.767 133.943 169.645 133.768 169.572C133.593 169.5 133.4 169.481 133.214 169.518C133.027 169.555 132.857 169.646 132.722 169.779C132.588 169.913 132.497 170.082 132.46 170.267C132.423 170.453 132.442 170.644 132.514 170.819C132.587 170.993 132.71 171.142 132.868 171.247C133.026 171.351 133.211 171.407 133.401 171.407C133.655 171.407 133.899 171.307 134.079 171.128C134.259 170.949 134.36 170.707 134.36 170.454Z" fill="#B86326"/>
<path d="M134.36 179.738C134.36 179.549 134.304 179.364 134.198 179.208C134.093 179.051 133.943 178.928 133.768 178.856C133.593 178.784 133.4 178.765 133.214 178.802C133.027 178.839 132.857 178.93 132.722 179.063C132.588 179.196 132.497 179.366 132.46 179.551C132.423 179.736 132.442 179.928 132.514 180.103C132.587 180.277 132.71 180.426 132.868 180.531C133.026 180.635 133.211 180.691 133.401 180.691C133.655 180.691 133.899 180.591 134.079 180.412C134.259 180.233 134.36 179.99 134.36 179.738Z" fill="#B86326"/>
<path d="M134.36 207.517C134.36 207.328 134.304 207.144 134.198 206.987C134.093 206.83 133.943 206.708 133.768 206.635C133.593 206.563 133.4 206.544 133.214 206.581C133.027 206.618 132.857 206.709 132.722 206.842C132.588 206.976 132.497 207.145 132.46 207.33C132.423 207.516 132.442 207.707 132.514 207.882C132.587 208.056 132.71 208.205 132.868 208.31C133.026 208.414 133.211 208.47 133.401 208.47C133.655 208.47 133.899 208.37 134.079 208.191C134.259 208.012 134.36 207.77 134.36 207.517Z" fill="#B86326"/>
<path d="M134.36 216.803C134.36 216.615 134.304 216.43 134.198 216.274C134.093 216.117 133.943 215.994 133.768 215.922C133.593 215.85 133.4 215.831 133.214 215.868C133.027 215.905 132.857 215.996 132.722 216.129C132.588 216.262 132.497 216.432 132.46 216.617C132.423 216.802 132.442 216.994 132.514 217.168C132.587 217.343 132.71 217.492 132.868 217.597C133.026 217.701 133.211 217.757 133.401 217.757C133.655 217.757 133.899 217.657 134.079 217.478C134.259 217.299 134.36 217.056 134.36 216.803Z" fill="#B86326"/>
<path d="M134.36 240.583C134.36 240.394 134.304 240.21 134.198 240.053C134.093 239.896 133.943 239.774 133.768 239.701C133.593 239.629 133.4 239.61 133.214 239.647C133.027 239.684 132.857 239.775 132.722 239.908C132.588 240.042 132.497 240.212 132.46 240.397C132.423 240.582 132.442 240.773 132.514 240.948C132.587 241.122 132.71 241.271 132.868 241.376C133.026 241.481 133.211 241.537 133.401 241.537C133.655 241.537 133.899 241.436 134.079 241.257C134.259 241.078 134.36 240.836 134.36 240.583Z" fill="#B86326"/>
<path d="M134.36 249.87C134.36 249.681 134.304 249.497 134.198 249.34C134.093 249.183 133.943 249.061 133.768 248.988C133.593 248.916 133.4 248.897 133.214 248.934C133.027 248.971 132.857 249.062 132.722 249.195C132.588 249.329 132.497 249.498 132.46 249.684C132.423 249.869 132.442 250.06 132.514 250.235C132.587 250.409 132.71 250.558 132.868 250.663C133.026 250.768 133.211 250.823 133.401 250.823C133.655 250.823 133.899 250.723 134.079 250.544C134.259 250.365 134.36 250.123 134.36 249.87Z" fill="#B86326"/>
<path d="M285.344 170.454C285.344 170.265 285.287 170.081 285.182 169.924C285.076 169.767 284.927 169.645 284.751 169.572C284.576 169.5 284.383 169.481 284.197 169.518C284.011 169.555 283.84 169.646 283.706 169.779C283.572 169.913 283.48 170.082 283.443 170.267C283.406 170.453 283.425 170.644 283.498 170.819C283.57 170.993 283.693 171.142 283.851 171.247C284.009 171.351 284.194 171.407 284.384 171.407C284.639 171.407 284.883 171.307 285.063 171.128C285.242 170.949 285.344 170.707 285.344 170.454Z" fill="#B86326"/>
<path d="M285.344 179.738C285.344 179.549 285.287 179.364 285.182 179.208C285.076 179.051 284.927 178.928 284.751 178.856C284.576 178.784 284.383 178.765 284.197 178.802C284.011 178.839 283.84 178.93 283.706 179.063C283.572 179.196 283.48 179.366 283.443 179.551C283.406 179.736 283.425 179.928 283.498 180.103C283.57 180.277 283.693 180.426 283.851 180.531C284.009 180.635 284.194 180.691 284.384 180.691C284.639 180.691 284.883 180.591 285.063 180.412C285.242 180.233 285.344 179.99 285.344 179.738Z" fill="#B86326"/>
<path d="M285.344 207.517C285.344 207.328 285.287 207.144 285.182 206.987C285.076 206.83 284.927 206.708 284.751 206.635C284.576 206.563 284.383 206.544 284.197 206.581C284.011 206.618 283.84 206.709 283.706 206.842C283.572 206.976 283.48 207.145 283.443 207.33C283.406 207.516 283.425 207.707 283.498 207.882C283.57 208.056 283.693 208.205 283.851 208.31C284.009 208.414 284.194 208.47 284.384 208.47C284.639 208.47 284.883 208.37 285.063 208.191C285.242 208.012 285.344 207.77 285.344 207.517Z" fill="#B86326"/>
<path d="M285.344 216.803C285.344 216.615 285.287 216.43 285.182 216.274C285.076 216.117 284.927 215.994 284.751 215.922C284.576 215.85 284.383 215.831 284.197 215.868C284.011 215.905 283.84 215.996 283.706 216.129C283.572 216.262 283.48 216.432 283.443 216.617C283.406 216.802 283.425 216.994 283.498 217.168C283.57 217.343 283.693 217.492 283.851 217.597C284.009 217.701 284.194 217.757 284.384 217.757C284.639 217.757 284.883 217.657 285.063 217.478C285.242 217.299 285.344 217.056 285.344 216.803Z" fill="#B86326"/>
<path d="M285.344 240.583C285.344 240.394 285.287 240.21 285.182 240.053C285.076 239.896 284.927 239.774 284.751 239.701C284.576 239.629 284.383 239.61 284.197 239.647C284.011 239.684 283.84 239.775 283.706 239.908C283.572 240.042 283.48 240.212 283.443 240.397C283.406 240.582 283.425 240.773 283.498 240.948C283.57 241.122 283.693 241.271 283.851 241.376C284.009 241.481 284.194 241.537 284.384 241.537C284.639 241.537 284.883 241.436 285.063 241.257C285.242 241.078 285.344 240.836 285.344 240.583Z" fill="#B86326"/>
<path d="M285.344 249.87C285.344 249.681 285.287 249.497 285.182 249.34C285.076 249.183 284.927 249.061 284.751 248.988C284.576 248.916 284.383 248.897 284.197 248.934C284.011 248.971 283.84 249.062 283.706 249.195C283.572 249.329 283.48 249.498 283.443 249.684C283.406 249.869 283.425 250.06 283.498 250.235C283.57 250.409 283.693 250.558 283.851 250.663C284.009 250.768 284.194 250.823 284.384 250.823C284.639 250.823 284.883 250.723 285.063 250.544C285.242 250.365 285.344 250.123 285.344 249.87Z" fill="#B86326"/>
<g style="mix-blend-mode:multiply" opacity="0.26">
<path d="M290.993 251.412V258.034H128.009V163.242H130.225C132.719 176.545 149.028 244.798 221.968 249.723C253.806 251.847 275.903 252.013 290.993 251.412Z" fill="#DE7C37"/>
</g>
<path d="M288.304 141.147C285.256 144.715 280.083 145.118 276.529 142.194C275.35 141.227 274.456 139.958 273.942 138.522C273.428 137.085 273.314 135.537 273.612 134.041C272.595 133.874 271.646 133.422 270.875 132.737C270.104 132.053 269.543 131.164 269.257 130.173C268.013 130.857 266.599 131.169 265.183 131.073C263.767 130.977 262.409 130.475 261.269 129.629C260.13 128.783 259.257 127.627 258.756 126.3C258.254 124.972 258.144 123.528 258.44 122.14C257.437 122.343 256.4 122.302 255.416 122.022C254.431 121.741 253.529 121.229 252.783 120.528C252.038 119.827 251.471 118.958 251.13 117.993C250.79 117.028 250.686 115.996 250.826 114.982C249.843 115.243 248.812 115.265 247.819 115.047C246.826 114.829 245.899 114.376 245.117 113.726C242.427 111.513 241.962 107.62 244.155 104.821L235.533 97.7262C221.629 114.639 224.054 139.643 240.97 153.563C257.887 167.484 282.889 165.05 296.81 148.15L288.304 141.147Z" fill="#057733"/>
<path d="M288.304 141.147C285.256 144.715 280.083 145.118 276.53 142.194C275.35 141.227 274.456 139.958 273.942 138.521C273.428 137.085 273.314 135.537 273.612 134.041C272.595 133.874 271.646 133.422 270.875 132.737C270.104 132.053 269.543 131.164 269.257 130.173C268.013 130.857 266.599 131.169 265.183 131.073C263.767 130.977 262.409 130.475 261.269 129.629C260.13 128.783 259.257 127.627 258.756 126.3C258.254 124.972 258.145 123.528 258.44 122.14C257.437 122.343 256.4 122.302 255.416 122.022C254.432 121.741 253.529 121.229 252.783 120.528C252.038 119.827 251.471 118.958 251.131 117.993C250.79 117.028 250.686 115.995 250.826 114.982C249.844 115.243 248.812 115.265 247.819 115.047C246.826 114.829 245.899 114.376 245.117 113.726C242.427 111.513 241.962 107.62 244.155 104.821L237.535 99.3735C224.436 115.292 226.794 138.55 242.606 151.561C258.418 164.572 281.695 162.409 294.794 146.491L288.304 141.147Z" fill="#BCE6A8"/>
<path d="M288.304 141.147C285.256 144.715 280.083 145.118 276.53 142.194C275.35 141.227 274.456 139.958 273.942 138.521C273.428 137.085 273.314 135.537 273.612 134.041C272.595 133.874 271.646 133.422 270.875 132.737C270.104 132.053 269.543 131.164 269.257 130.173C268.013 130.857 266.599 131.169 265.183 131.073C263.767 130.977 262.409 130.475 261.269 129.629C260.13 128.783 259.258 127.627 258.756 126.3C258.254 124.972 258.145 123.528 258.44 122.14C257.437 122.343 256.4 122.302 255.416 122.022C254.432 121.741 253.529 121.229 252.783 120.528C252.038 119.827 251.471 118.958 251.131 117.993C250.79 117.028 250.686 115.995 250.826 114.982C249.844 115.243 248.812 115.265 247.819 115.047C246.826 114.829 245.899 114.376 245.117 113.726C242.427 111.513 241.962 107.62 244.155 104.821L239.892 101.312C227.877 115.914 230.035 137.265 244.545 149.205C259.055 161.145 280.422 159.152 292.437 144.551L288.304 141.147Z" fill="#FF403D"/>
<path d="M278.248 147.264C278.248 147.264 277.477 147.756 277.26 149.316C277.043 150.875 277.724 152.238 279.027 151.895C280.33 151.552 280.223 150.119 280.223 150.119C280.223 150.119 280.015 148.353 278.753 147.332C278.675 147.269 278.583 147.229 278.484 147.214C278.444 147.205 278.402 147.205 278.361 147.214C278.32 147.223 278.282 147.24 278.248 147.264Z" fill="#1D1D1B"/>
<path d="M284.97 144.519C284.97 144.519 284.306 145.149 284.388 146.723C284.47 148.297 285.398 149.508 286.613 148.923C287.829 148.339 287.453 146.95 287.453 146.95C287.453 146.95 286.915 145.254 285.476 144.492C285.388 144.446 285.289 144.424 285.19 144.428C285.149 144.427 285.108 144.435 285.071 144.45C285.033 144.466 284.999 144.489 284.97 144.519Z" fill="#1D1D1B"/>
<path d="M271.008 138.837C271.008 138.837 270.345 139.468 270.426 141.041C270.507 142.614 271.437 143.826 272.652 143.241C273.867 142.656 273.491 141.269 273.491 141.269C273.491 141.269 272.953 139.572 271.517 138.807C271.428 138.761 271.33 138.738 271.23 138.742C271.189 138.741 271.148 138.75 271.109 138.766C271.071 138.782 271.037 138.807 271.008 138.837Z" fill="#1D1D1B"/>
<path d="M263.05 135.978C263.05 135.978 262.15 136.145 261.362 137.509C260.574 138.874 260.69 140.399 262.031 140.567C263.372 140.735 263.809 139.37 263.809 139.37C263.809 139.37 264.281 137.654 263.493 136.23C263.445 136.143 263.374 136.07 263.288 136.02C263.254 135.996 263.215 135.98 263.174 135.973C263.132 135.966 263.09 135.967 263.05 135.978Z" fill="#1D1D1B"/>
<path d="M254.179 129.105C254.179 129.105 253.347 128.722 251.916 129.38C250.486 130.038 249.703 131.349 250.699 132.264C251.695 133.179 252.842 132.312 252.842 132.312C252.842 132.312 254.218 131.183 254.393 129.562C254.403 129.464 254.388 129.364 254.347 129.273C254.332 129.235 254.309 129.201 254.28 129.172C254.251 129.143 254.217 129.12 254.179 129.105Z" fill="#1D1D1B"/>
<path d="M249.881 119.709C249.881 119.709 249.289 119.01 247.712 119.004C246.135 118.999 244.873 119.857 245.391 121.104C245.909 122.35 247.314 122.052 247.314 122.052C247.314 122.052 249.037 121.608 249.881 120.217C249.932 120.131 249.96 120.034 249.961 119.934C249.964 119.893 249.959 119.852 249.945 119.813C249.931 119.774 249.909 119.739 249.881 119.709Z" fill="#1D1D1B"/>
<path d="M268.458 149.352C268.458 149.352 267.63 149.759 267.235 151.299C266.84 152.839 267.372 154.284 268.717 154.086C270.062 153.888 270.118 152.439 270.118 152.439C270.118 152.439 270.11 150.643 268.956 149.476C268.886 149.404 268.798 149.353 268.701 149.328C268.661 149.315 268.619 149.31 268.577 149.314C268.535 149.318 268.494 149.331 268.458 149.352Z" fill="#1D1D1B"/>
<path d="M257.86 147.406C257.86 147.406 256.946 147.14 255.575 148.036C254.203 148.933 253.602 150.402 254.762 151.188C255.922 151.974 256.975 150.91 256.975 150.91C256.975 150.91 258.22 149.54 258.155 147.844C258.15 147.741 258.119 147.64 258.063 147.553C258.041 147.516 258.012 147.483 257.977 147.458C257.942 147.433 257.902 147.415 257.86 147.406Z" fill="#1D1D1B"/>
<path d="M246.685 140.108C246.685 140.108 245.792 139.848 244.453 140.723C243.115 141.598 242.525 143.034 243.66 143.802C244.795 144.569 245.821 143.53 245.821 143.53C245.821 143.53 247.035 142.191 246.971 140.538C246.967 140.437 246.936 140.339 246.882 140.255C246.861 140.218 246.833 140.185 246.799 140.16C246.765 140.135 246.726 140.117 246.685 140.108Z" fill="#1D1D1B"/>
<path d="M241.351 130.966C241.351 130.966 240.689 130.319 239.1 130.462C237.511 130.606 236.323 131.592 236.962 132.798C237.6 134.005 238.988 133.571 238.988 133.571C238.988 133.571 240.68 132.958 241.401 131.479C241.445 131.388 241.463 131.287 241.455 131.187C241.454 131.145 241.445 131.103 241.427 131.065C241.409 131.027 241.383 130.994 241.351 130.966Z" fill="#1D1D1B"/>
<path d="M240.328 119.627C240.328 119.627 240.011 118.789 238.558 118.266C237.105 117.742 235.659 118.123 235.726 119.442C235.793 120.762 237.19 120.948 237.19 120.948C237.19 120.948 238.926 121.106 240.162 120.099C240.237 120.037 240.295 119.956 240.329 119.864C240.345 119.827 240.354 119.787 240.354 119.746C240.354 119.705 240.345 119.664 240.328 119.627Z" fill="#1D1D1B"/>
<path d="M241.499 111.166C241.499 111.166 241.171 110.303 239.681 109.768C238.191 109.233 236.699 109.621 236.768 110.978C236.838 112.334 238.274 112.527 238.274 112.527C238.274 112.527 240.059 112.69 241.331 111.652C241.409 111.589 241.468 111.506 241.503 111.412C241.52 111.373 241.528 111.331 241.527 111.288C241.527 111.246 241.517 111.204 241.499 111.166Z" fill="#1D1D1B"/>
<g clip-path="url(#clip0_109_21999)">
<path d="M185.499 172.185H212.322V257.563H185.499V172.185Z" fill="#D9AC45"/>
<path d="M56.9516 172.185H82.2227V257.563H56.9516V172.185Z" fill="#D9AC45"/>
<g style="mix-blend-mode:multiply" opacity="0.53">
<path d="M185.5 172.185H198.911V257.563H185.5V172.185Z" fill="#FACE69"/>
</g>
<g style="mix-blend-mode:multiply" opacity="0.53">
<path d="M56.9545 172.185H68.915V257.563H56.9545V172.185Z" fill="#FACE69"/>
</g>
<path d="M3.74079 172.185H20.584V257.563H3.74079V172.185Z" fill="#DBB153"/>
<path d="M0.306366 234.887H216.726V258.038H0.306366V234.887Z" fill="#FACE69"/>
<path d="M0.306366 207.636H216.726V230.789H0.306366V207.636Z" fill="#FACE69"/>
<path d="M0.306366 180.385H216.726V203.538H0.306366V180.385Z" fill="#FACE69"/>
<path d="M0.306122 180.385H67.2373V203.538H0.306122V180.385Z" fill="#EBBE57"/>
<path d="M0.306122 208.754H67.2373V231.907H0.306122V208.754Z" fill="#EBBE57"/>
<path d="M0.306122 234.887H67.2373V258.038H0.306122V234.887Z" fill="#EBBE57"/>
<path d="M64.8027 180.385H72.0762V203.538H64.8027V180.385Z" fill="#F0C25B"/>
<path d="M64.8027 207.636H72.0762V230.789H64.8027V207.636Z" fill="#F0C25B"/>
<path d="M64.8027 234.887H72.0762V257.563H64.8027V234.887Z" fill="#F0C25B"/>
<g style="mix-blend-mode:multiply" opacity="0.53">
<path d="M63.544 180.385H64.8057V203.538H63.544V180.385Z" fill="#FACE69"/>
</g>
<g style="mix-blend-mode:multiply" opacity="0.53">
<path d="M63.544 207.636H64.8057V230.789H63.544V207.636Z" fill="#FACE69"/>
</g>
<g style="mix-blend-mode:multiply" opacity="0.53">
<path d="M63.544 234.887H64.8057V258.038H63.544V234.887Z" fill="#FACE69"/>
</g>
<g style="mix-blend-mode:screen" opacity="0.51">
<path d="M72.076 207.636H216.726V209.536H72.076V207.636Z" fill="#FACE69"/>
</g>
<g style="mix-blend-mode:screen" opacity="0.51">
<path d="M72.076 180.385H216.726V183.161H72.076V180.385Z" fill="#FACE69"/>
</g>
<g style="mix-blend-mode:screen" opacity="0.51">
<path d="M72.076 234.887H216.726V237.164H72.076V234.887Z" fill="#FACE69"/>
</g>
<path d="M77.7696 186.31C77.7696 186.062 77.8436 185.819 77.9823 185.612C78.1209 185.406 78.318 185.245 78.5485 185.15C78.779 185.055 79.0327 185.03 79.2774 185.078C79.5222 185.127 79.747 185.246 79.9234 185.422C80.0999 185.598 80.22 185.822 80.2687 186.065C80.3174 186.309 80.2924 186.561 80.1969 186.791C80.1014 187.021 79.9397 187.217 79.7322 187.355C79.5248 187.493 79.2808 187.566 79.0313 187.566C78.6967 187.566 78.3758 187.434 78.1392 187.199C77.9026 186.963 77.7696 186.643 77.7696 186.31Z" fill="#AD632E"/>
<path d="M79.034 196.227C78.3355 196.227 77.7692 195.664 77.7692 194.968C77.7692 194.273 78.3355 193.709 79.034 193.709C79.7325 193.709 80.2988 194.273 80.2988 194.968C80.2988 195.664 79.7325 196.227 79.034 196.227Z" fill="#AD632E"/>
<path d="M77.7696 213.854C77.7696 213.605 77.8436 213.362 77.9823 213.156C78.1209 212.949 78.318 212.788 78.5485 212.693C78.779 212.598 79.0327 212.573 79.2774 212.622C79.5222 212.67 79.747 212.79 79.9234 212.966C80.0999 213.141 80.22 213.365 80.2687 213.609C80.3174 213.852 80.2924 214.105 80.1969 214.334C80.1014 214.564 79.9397 214.76 79.7322 214.898C79.5248 215.036 79.2808 215.11 79.0313 215.11C78.6967 215.11 78.3758 214.978 78.1392 214.742C77.9026 214.506 77.7696 214.187 77.7696 213.854Z" fill="#AD632E"/>
<path d="M79.034 223.768C78.3355 223.768 77.7692 223.204 77.7692 222.508C77.7692 221.813 78.3355 221.249 79.034 221.249C79.7325 221.249 80.2988 221.813 80.2988 222.508C80.2988 223.204 79.7325 223.768 79.034 223.768Z" fill="#AD632E"/>
<path d="M77.7696 241.397C77.7696 241.149 77.8436 240.906 77.9823 240.699C78.1209 240.493 78.318 240.332 78.5485 240.237C78.779 240.142 79.0327 240.117 79.2774 240.165C79.5222 240.214 79.747 240.333 79.9234 240.509C80.0999 240.685 80.22 240.909 80.2687 241.152C80.3174 241.396 80.2924 241.648 80.1969 241.878C80.1014 242.107 79.9397 242.304 79.7322 242.442C79.5248 242.58 79.2808 242.653 79.0313 242.653C78.6967 242.653 78.3758 242.521 78.1392 242.285C77.9026 242.05 77.7696 241.73 77.7696 241.397Z" fill="#AD632E"/>
<path d="M79.034 251.311C78.3355 251.311 77.7692 250.747 77.7692 250.052C77.7692 249.356 78.3355 248.792 79.034 248.792C79.7325 248.792 80.2988 249.356 80.2988 250.052C80.2988 250.747 79.7325 251.311 79.034 251.311Z" fill="#AD632E"/>
<path d="M57.63 186.31C57.63 186.062 57.704 185.819 57.8426 185.612C57.9813 185.406 58.1783 185.245 58.4089 185.15C58.6394 185.055 58.8931 185.03 59.1378 185.078C59.3825 185.127 59.6073 185.246 59.7838 185.422C59.9602 185.598 60.0804 185.822 60.1291 186.065C60.1778 186.309 60.1527 186.561 60.0572 186.791C59.9618 187.021 59.8001 187.217 59.5926 187.355C59.3851 187.493 59.1412 187.566 58.8917 187.566C58.5571 187.566 58.2361 187.434 57.9995 187.199C57.7629 186.963 57.63 186.643 57.63 186.31Z" fill="#AD632E"/>
<path d="M58.8944 196.227C58.1958 196.227 57.6296 195.664 57.6296 194.968C57.6296 194.273 58.1958 193.709 58.8944 193.709C59.5929 193.709 60.1592 194.273 60.1592 194.968C60.1592 195.664 59.5929 196.227 58.8944 196.227Z" fill="#AD632E"/>
<path d="M57.63 213.854C57.63 213.605 57.704 213.362 57.8426 213.156C57.9813 212.949 58.1783 212.788 58.4089 212.693C58.6394 212.598 58.8931 212.573 59.1378 212.622C59.3825 212.67 59.6073 212.79 59.7838 212.966C59.9602 213.141 60.0804 213.365 60.1291 213.609C60.1778 213.852 60.1527 214.105 60.0572 214.334C59.9618 214.564 59.8001 214.76 59.5926 214.898C59.3851 215.036 59.1412 215.11 58.8917 215.11C58.5571 215.11 58.2361 214.978 57.9995 214.742C57.7629 214.506 57.63 214.187 57.63 213.854Z" fill="#AD632E"/>
<path d="M58.8944 223.768C58.1958 223.768 57.6296 223.204 57.6296 222.508C57.6296 221.813 58.1958 221.249 58.8944 221.249C59.5929 221.249 60.1592 221.813 60.1592 222.508C60.1592 223.204 59.5929 223.768 58.8944 223.768Z" fill="#AD632E"/>
<path d="M57.63 241.397C57.63 241.149 57.704 240.906 57.8426 240.699C57.9813 240.493 58.1783 240.332 58.4089 240.237C58.6394 240.142 58.8931 240.117 59.1378 240.165C59.3825 240.214 59.6073 240.333 59.7838 240.509C59.9602 240.685 60.0804 240.909 60.1291 241.152C60.1778 241.396 60.1527 241.648 60.0572 241.878C59.9618 242.107 59.8001 242.304 59.5926 242.442C59.3851 242.58 59.1412 242.653 58.8917 242.653C58.5571 242.653 58.2361 242.521 57.9995 242.285C57.7629 242.05 57.63 241.73 57.63 241.397Z" fill="#AD632E"/>
<path d="M58.8944 251.311C58.1958 251.311 57.6296 250.747 57.6296 250.052C57.6296 249.356 58.1958 248.792 58.8944 248.792C59.5929 248.792 60.1592 249.356 60.1592 250.052C60.1592 250.747 59.5929 251.311 58.8944 251.311Z" fill="#AD632E"/>
<path d="M4.62707 186.31C4.62707 186.062 4.70105 185.819 4.83969 185.612C4.97832 185.406 5.17537 185.245 5.40591 185.15C5.63645 185.055 5.89011 185.03 6.13485 185.078C6.37958 185.127 6.6044 185.246 6.78085 185.422C6.95729 185.598 7.07746 185.822 7.12614 186.065C7.17482 186.309 7.14986 186.561 7.05437 186.791C6.95888 187.021 6.79712 187.217 6.58964 187.355C6.38216 187.493 6.13827 187.566 5.88874 187.566C5.55412 187.566 5.23315 187.434 4.99655 187.199C4.75994 186.963 4.62707 186.643 4.62707 186.31Z" fill="#AD632E"/>
<path d="M4.62707 194.968C4.62707 194.72 4.70105 194.477 4.83969 194.27C4.97832 194.064 5.17537 193.903 5.40591 193.808C5.63645 193.712 5.89011 193.688 6.13485 193.736C6.37958 193.785 6.6044 193.904 6.78085 194.08C6.95729 194.256 7.07746 194.479 7.12614 194.723C7.17482 194.967 7.14986 195.219 7.05437 195.449C6.95888 195.678 6.79712 195.874 6.58964 196.012C6.38216 196.15 6.13827 196.224 5.88874 196.224C5.55412 196.224 5.23315 196.092 4.99655 195.856C4.75994 195.621 4.62707 195.301 4.62707 194.968Z" fill="#AD632E"/>
<path d="M4.62707 213.854C4.62707 213.605 4.70105 213.362 4.83969 213.156C4.97832 212.949 5.17537 212.788 5.40591 212.693C5.63645 212.598 5.89011 212.573 6.13485 212.622C6.37958 212.67 6.6044 212.79 6.78085 212.966C6.95729 213.141 7.07746 213.365 7.12614 213.609C7.17482 213.852 7.14986 214.105 7.05437 214.334C6.95888 214.564 6.79712 214.76 6.58964 214.898C6.38216 215.036 6.13827 215.11 5.88874 215.11C5.55412 215.11 5.23315 214.978 4.99655 214.742C4.75994 214.506 4.62707 214.187 4.62707 213.854Z" fill="#AD632E"/>
<path d="M4.62707 222.511C4.62707 222.263 4.70105 222.02 4.83969 221.814C4.97832 221.607 5.17537 221.446 5.40591 221.351C5.63645 221.256 5.89011 221.231 6.13485 221.28C6.37958 221.328 6.6044 221.448 6.78085 221.623C6.95729 221.799 7.07746 222.023 7.12614 222.266C7.17482 222.51 7.14986 222.763 7.05437 222.992C6.95888 223.222 6.79712 223.418 6.58964 223.556C6.38216 223.694 6.13827 223.768 5.88874 223.768C5.55412 223.768 5.23315 223.635 4.99655 223.4C4.75994 223.164 4.62707 222.845 4.62707 222.511Z" fill="#AD632E"/>
<path d="M4.62707 241.397C4.62707 241.149 4.70105 240.906 4.83969 240.699C4.97832 240.493 5.17537 240.332 5.40591 240.237C5.63645 240.142 5.89011 240.117 6.13485 240.165C6.37958 240.214 6.6044 240.333 6.78085 240.509C6.95729 240.685 7.07746 240.909 7.12614 241.152C7.17482 241.396 7.14986 241.648 7.05437 241.878C6.95888 242.107 6.79712 242.304 6.58964 242.442C6.38216 242.58 6.13827 242.653 5.88874 242.653C5.55412 242.653 5.23315 242.521 4.99655 242.285C4.75994 242.05 4.62707 241.73 4.62707 241.397Z" fill="#AD632E"/>
<path d="M4.62707 250.042C4.62707 249.794 4.70105 249.551 4.83969 249.345C4.97832 249.138 5.17537 248.977 5.40591 248.882C5.63645 248.787 5.89011 248.762 6.13485 248.811C6.37958 248.859 6.6044 248.979 6.78085 249.154C6.95729 249.33 7.07746 249.554 7.12614 249.797C7.17482 250.041 7.14986 250.294 7.05437 250.523C6.95888 250.753 6.79712 250.949 6.58964 251.087C6.38216 251.225 6.13827 251.299 5.88874 251.299C5.55412 251.299 5.23315 251.166 4.99655 250.931C4.75994 250.695 4.62707 250.376 4.62707 250.042Z" fill="#AD632E"/>
</g>
<g clip-path="url(#clip1_109_21999)">
<path d="M187.495 86.3333H214.318V171.711H187.495V86.3333Z" fill="#D9AC45"/>
<path d="M58.9477 86.3333H84.2188V171.711H58.9477V86.3333Z" fill="#D9AC45"/>
<g style="mix-blend-mode:multiply" opacity="0.53">
<path d="M187.496 86.3333H200.907V171.711H187.496V86.3333Z" fill="#FACE69"/>
</g>
<g style="mix-blend-mode:multiply" opacity="0.53">
<path d="M58.9506 86.3333H70.9111V171.711H58.9506V86.3333Z" fill="#FACE69"/>
</g>
<path d="M5.73688 86.3333H22.5801V171.711H5.73688V86.3333Z" fill="#DBB153"/>
<path d="M2.30246 149.035H218.722V172.185H2.30246V149.035Z" fill="#FACE69"/>
<path d="M2.30246 121.784H218.722V144.937H2.30246V121.784Z" fill="#FACE69"/>
<path d="M2.30246 94.5325H218.722V117.686H2.30246V94.5325Z" fill="#FACE69"/>
<path d="M2.30222 94.5325H69.2334V117.686H2.30222V94.5325Z" fill="#EBBE57"/>
<path d="M2.30222 122.902H69.2334V146.055H2.30222V122.902Z" fill="#EBBE57"/>
<path d="M2.30222 149.035H69.2334V172.185H2.30222V149.035Z" fill="#EBBE57"/>
<path d="M66.7988 94.5325H74.0723V117.686H66.7988V94.5325Z" fill="#F0C25B"/>
<path d="M66.7988 121.784H74.0723V144.937H66.7988V121.784Z" fill="#F0C25B"/>
<path d="M66.7988 149.035H74.0723V171.711H66.7988V149.035Z" fill="#F0C25B"/>
<g style="mix-blend-mode:multiply" opacity="0.53">
<path d="M65.5401 94.5325H66.8018V117.686H65.5401V94.5325Z" fill="#FACE69"/>
</g>
<g style="mix-blend-mode:multiply" opacity="0.53">
<path d="M65.5401 121.784H66.8018V144.937H65.5401V121.784Z" fill="#FACE69"/>
</g>
<g style="mix-blend-mode:multiply" opacity="0.53">
<path d="M65.5401 149.035H66.8018V172.185H65.5401V149.035Z" fill="#FACE69"/>
</g>
<g style="mix-blend-mode:screen" opacity="0.51">
<path d="M74.0721 121.784H218.722V123.684H74.0721V121.784Z" fill="#FACE69"/>
</g>
<g style="mix-blend-mode:screen" opacity="0.51">
<path d="M74.0721 94.5325H218.722V97.3085H74.0721V94.5325Z" fill="#FACE69"/>
</g>
<g style="mix-blend-mode:screen" opacity="0.51">
<path d="M74.0721 149.035H218.722V151.312H74.0721V149.035Z" fill="#FACE69"/>
</g>
<path d="M79.7657 100.458C79.7657 100.21 79.8397 99.967 79.9784 99.7604C80.117 99.5539 80.3141 99.3928 80.5446 99.2978C80.7751 99.2027 81.0288 99.1778 81.2735 99.2263C81.5183 99.2747 81.7431 99.3944 81.9195 99.5701C82.096 99.7457 82.2161 99.9696 82.2648 100.213C82.3135 100.457 82.2885 100.709 82.193 100.939C82.0975 101.168 81.9358 101.365 81.7283 101.503C81.5208 101.641 81.2769 101.714 81.0274 101.714C80.6928 101.714 80.3719 101.582 80.1353 101.346C79.8987 101.111 79.7657 100.791 79.7657 100.458Z" fill="#AD632E"/>
<path d="M81.0301 110.375C80.3316 110.375 79.7653 109.811 79.7653 109.116C79.7653 108.42 80.3316 107.857 81.0301 107.857C81.7286 107.857 82.2949 108.42 82.2949 109.116C82.2949 109.811 81.7286 110.375 81.0301 110.375Z" fill="#AD632E"/>
<path d="M79.7657 128.002C79.7657 127.753 79.8397 127.51 79.9784 127.304C80.117 127.097 80.3141 126.936 80.5446 126.841C80.7751 126.746 81.0288 126.721 81.2735 126.77C81.5183 126.818 81.7431 126.938 81.9195 127.113C82.096 127.289 82.2161 127.513 82.2648 127.757C82.3135 128 82.2885 128.253 82.193 128.482C82.0975 128.712 81.9358 128.908 81.7283 129.046C81.5208 129.184 81.2769 129.258 81.0274 129.258C80.6928 129.258 80.3719 129.125 80.1353 128.89C79.8987 128.654 79.7657 128.335 79.7657 128.002Z" fill="#AD632E"/>
<path d="M81.0301 137.915C80.3316 137.915 79.7653 137.352 79.7653 136.656C79.7653 135.961 80.3316 135.397 81.0301 135.397C81.7286 135.397 82.2949 135.961 82.2949 136.656C82.2949 137.352 81.7286 137.915 81.0301 137.915Z" fill="#AD632E"/>
<path d="M79.7657 155.545C79.7657 155.297 79.8397 155.054 79.9784 154.847C80.117 154.641 80.3141 154.48 80.5446 154.385C80.7751 154.29 81.0288 154.265 81.2735 154.313C81.5183 154.362 81.7431 154.481 81.9195 154.657C82.096 154.833 82.2161 155.056 82.2648 155.3C82.3135 155.544 82.2885 155.796 82.193 156.026C82.0975 156.255 81.9358 156.452 81.7283 156.59C81.5208 156.728 81.2769 156.801 81.0274 156.801C80.6928 156.801 80.3719 156.669 80.1353 156.433C79.8987 156.198 79.7657 155.878 79.7657 155.545Z" fill="#AD632E"/>
<path d="M81.0301 165.459C80.3316 165.459 79.7653 164.895 79.7653 164.2C79.7653 163.504 80.3316 162.94 81.0301 162.94C81.7286 162.94 82.2949 163.504 82.2949 164.2C82.2949 164.895 81.7286 165.459 81.0301 165.459Z" fill="#AD632E"/>
<path d="M59.6261 100.458C59.6261 100.21 59.7001 99.967 59.8387 99.7604C59.9774 99.5539 60.1744 99.3928 60.405 99.2978C60.6355 99.2027 60.8892 99.1778 61.1339 99.2263C61.3786 99.2747 61.6034 99.3944 61.7799 99.5701C61.9563 99.7457 62.0765 99.9696 62.1252 100.213C62.1739 100.457 62.1488 100.709 62.0533 100.939C61.9578 101.168 61.7962 101.365 61.5887 101.503C61.3812 101.641 61.1373 101.714 60.8878 101.714C60.5532 101.714 60.2322 101.582 59.9956 101.346C59.759 101.111 59.6261 100.791 59.6261 100.458Z" fill="#AD632E"/>
<path d="M60.8905 110.375C60.1919 110.375 59.6256 109.811 59.6256 109.116C59.6256 108.42 60.1919 107.857 60.8905 107.857C61.589 107.857 62.1553 108.42 62.1553 109.116C62.1553 109.811 61.589 110.375 60.8905 110.375Z" fill="#AD632E"/>
<path d="M59.6261 128.002C59.6261 127.753 59.7001 127.51 59.8387 127.304C59.9774 127.097 60.1744 126.936 60.405 126.841C60.6355 126.746 60.8892 126.721 61.1339 126.77C61.3786 126.818 61.6034 126.938 61.7799 127.113C61.9563 127.289 62.0765 127.513 62.1252 127.757C62.1739 128 62.1488 128.253 62.0533 128.482C61.9578 128.712 61.7962 128.908 61.5887 129.046C61.3812 129.184 61.1373 129.258 60.8878 129.258C60.5532 129.258 60.2322 129.125 59.9956 128.89C59.759 128.654 59.6261 128.335 59.6261 128.002Z" fill="#AD632E"/>
<path d="M60.8905 137.915C60.1919 137.915 59.6256 137.352 59.6256 136.656C59.6256 135.961 60.1919 135.397 60.8905 135.397C61.589 135.397 62.1553 135.961 62.1553 136.656C62.1553 137.352 61.589 137.915 60.8905 137.915Z" fill="#AD632E"/>
<path d="M59.6261 155.545C59.6261 155.297 59.7001 155.054 59.8387 154.847C59.9774 154.641 60.1744 154.48 60.405 154.385C60.6355 154.29 60.8892 154.265 61.1339 154.313C61.3786 154.362 61.6034 154.481 61.7799 154.657C61.9563 154.833 62.0765 155.056 62.1252 155.3C62.1739 155.544 62.1488 155.796 62.0533 156.026C61.9578 156.255 61.7962 156.452 61.5887 156.59C61.3812 156.728 61.1373 156.801 60.8878 156.801C60.5532 156.801 60.2322 156.669 59.9956 156.433C59.759 156.198 59.6261 155.878 59.6261 155.545Z" fill="#AD632E"/>
<path d="M60.8905 165.459C60.1919 165.459 59.6256 164.895 59.6256 164.2C59.6256 163.504 60.1919 162.94 60.8905 162.94C61.589 162.94 62.1553 163.504 62.1553 164.2C62.1553 164.895 61.589 165.459 60.8905 165.459Z" fill="#AD632E"/>
<path d="M6.62317 100.458C6.62317 100.21 6.69715 99.967 6.83578 99.7604C6.97441 99.5539 7.17146 99.3928 7.402 99.2978C7.63254 99.2027 7.8862 99.1778 8.13094 99.2263C8.37568 99.2747 8.60049 99.3944 8.77694 99.5701C8.95339 99.7457 9.07355 99.9696 9.12223 100.213C9.17092 100.457 9.14596 100.709 9.05047 100.939C8.95497 101.168 8.79321 101.365 8.58574 101.503C8.37826 101.641 8.13436 101.714 7.88483 101.714C7.55022 101.714 7.22925 101.582 6.99264 101.346C6.75603 101.111 6.62317 100.791 6.62317 100.458Z" fill="#AD632E"/>
<path d="M6.62317 109.116C6.62317 108.868 6.69715 108.625 6.83578 108.418C6.97441 108.212 7.17146 108.051 7.402 107.955C7.63254 107.86 7.8862 107.836 8.13094 107.884C8.37568 107.932 8.60049 108.052 8.77694 108.228C8.95339 108.403 9.07355 108.627 9.12223 108.871C9.17092 109.115 9.14596 109.367 9.05047 109.597C8.95497 109.826 8.79321 110.022 8.58574 110.16C8.37826 110.298 8.13436 110.372 7.88483 110.372C7.55022 110.372 7.22925 110.24 6.99264 110.004C6.75603 109.769 6.62317 109.449 6.62317 109.116Z" fill="#AD632E"/>
<path d="M6.62317 128.002C6.62317 127.753 6.69715 127.51 6.83578 127.304C6.97441 127.097 7.17146 126.936 7.402 126.841C7.63254 126.746 7.8862 126.721 8.13094 126.77C8.37568 126.818 8.60049 126.938 8.77694 127.113C8.95339 127.289 9.07355 127.513 9.12223 127.757C9.17092 128 9.14596 128.253 9.05047 128.482C8.95497 128.712 8.79321 128.908 8.58574 129.046C8.37826 129.184 8.13436 129.258 7.88483 129.258C7.55022 129.258 7.22925 129.125 6.99264 128.89C6.75603 128.654 6.62317 128.335 6.62317 128.002Z" fill="#AD632E"/>
<path d="M6.62317 136.659C6.62317 136.411 6.69715 136.168 6.83578 135.962C6.97441 135.755 7.17146 135.594 7.402 135.499C7.63254 135.404 7.8862 135.379 8.13094 135.427C8.37568 135.476 8.60049 135.596 8.77694 135.771C8.95339 135.947 9.07355 136.171 9.12223 136.414C9.17092 136.658 9.14596 136.911 9.05047 137.14C8.95497 137.37 8.79321 137.566 8.58574 137.704C8.37826 137.842 8.13436 137.916 7.88483 137.916C7.55022 137.916 7.22925 137.783 6.99264 137.548C6.75603 137.312 6.62317 136.993 6.62317 136.659Z" fill="#AD632E"/>
<path d="M6.62317 155.545C6.62317 155.297 6.69715 155.054 6.83578 154.847C6.97441 154.641 7.17146 154.48 7.402 154.385C7.63254 154.29 7.8862 154.265 8.13094 154.313C8.37568 154.362 8.60049 154.481 8.77694 154.657C8.95339 154.833 9.07355 155.056 9.12223 155.3C9.17092 155.544 9.14596 155.796 9.05047 156.026C8.95497 156.255 8.79321 156.452 8.58574 156.59C8.37826 156.728 8.13436 156.801 7.88483 156.801C7.55022 156.801 7.22925 156.669 6.99264 156.433C6.75603 156.198 6.62317 155.878 6.62317 155.545Z" fill="#AD632E"/>
<path d="M6.62317 164.19C6.62317 163.942 6.69715 163.699 6.83578 163.493C6.97441 163.286 7.17146 163.125 7.402 163.03C7.63254 162.935 7.8862 162.91 8.13094 162.958C8.37568 163.007 8.60049 163.127 8.77694 163.302C8.95339 163.478 9.07355 163.702 9.12223 163.945C9.17092 164.189 9.14596 164.442 9.05047 164.671C8.95497 164.901 8.79321 165.097 8.58574 165.235C8.37826 165.373 8.13436 165.447 7.88483 165.447C7.55022 165.447 7.22925 165.314 6.99264 165.079C6.75603 164.843 6.62317 164.524 6.62317 164.19Z" fill="#AD632E"/>
</g>
<g clip-path="url(#clip2_109_21999)">
<path d="M187.495 0.480713H214.318V85.8588H187.495V0.480713Z" fill="#D9AC45"/>
<path d="M58.9477 0.480713H84.2188V85.8588H58.9477V0.480713Z" fill="#D9AC45"/>
<g style="mix-blend-mode:multiply" opacity="0.53">
<path d="M187.496 0.480713H200.907V85.8588H187.496V0.480713Z" fill="#FACE69"/>
</g>
<g style="mix-blend-mode:multiply" opacity="0.53">
<path d="M58.9506 0.480713H70.9111V85.8588H58.9506V0.480713Z" fill="#FACE69"/>
</g>
<path d="M5.73688 0.480713H22.5801V85.8588H5.73688V0.480713Z" fill="#DBB153"/>
<path d="M2.30246 63.1829H218.722V86.333H2.30246V63.1829Z" fill="#FACE69"/>
<path d="M2.30246 35.9314H218.722V59.0847H2.30246V35.9314Z" fill="#FACE69"/>
<path d="M2.30246 8.68018H218.722V31.8335H2.30246V8.68018Z" fill="#FACE69"/>
<path d="M2.30222 8.68018H69.2334V31.8335H2.30222V8.68018Z" fill="#EBBE57"/>
<path d="M2.30222 37.0493H69.2334V60.2026H2.30222V37.0493Z" fill="#EBBE57"/>
<path d="M2.30222 63.1829H69.2334V86.333H2.30222V63.1829Z" fill="#EBBE57"/>
<path d="M66.7988 8.68018H74.0723V31.8335H66.7988V8.68018Z" fill="#F0C25B"/>
<path d="M66.7988 35.9314H74.0723V59.0847H66.7988V35.9314Z" fill="#F0C25B"/>
<path d="M66.7988 63.1829H74.0723V85.8589H66.7988V63.1829Z" fill="#F0C25B"/>
<g style="mix-blend-mode:multiply" opacity="0.53">
<path d="M65.5401 8.68018H66.8018V31.8335H65.5401V8.68018Z" fill="#FACE69"/>
</g>
<g style="mix-blend-mode:multiply" opacity="0.53">
<path d="M65.5401 35.9314H66.8018V59.0847H65.5401V35.9314Z" fill="#FACE69"/>
</g>
<g style="mix-blend-mode:multiply" opacity="0.53">
<path d="M65.5401 63.1829H66.8018V86.333H65.5401V63.1829Z" fill="#FACE69"/>
</g>
<g style="mix-blend-mode:screen" opacity="0.51">
<path d="M74.0721 35.9314H218.722V37.8313H74.0721V35.9314Z" fill="#FACE69"/>
</g>
<g style="mix-blend-mode:screen" opacity="0.51">
<path d="M74.0721 8.68018H218.722V11.4562H74.0721V8.68018Z" fill="#FACE69"/>
</g>
<g style="mix-blend-mode:screen" opacity="0.51">
<path d="M74.0721 63.1829H218.722V65.4596H74.0721V63.1829Z" fill="#FACE69"/>
</g>
<path d="M79.7657 14.6057C79.7657 14.3573 79.8397 14.1144 79.9784 13.9079C80.117 13.7013 80.3141 13.5403 80.5446 13.4452C80.7751 13.3502 81.0288 13.3253 81.2735 13.3737C81.5183 13.4222 81.7431 13.5418 81.9195 13.7175C82.096 13.8932 82.2161 14.117 82.2648 14.3607C82.3135 14.6043 82.2885 14.8569 82.193 15.0864C82.0975 15.3159 81.9358 15.5121 81.7283 15.6501C81.5208 15.7882 81.2769 15.8619 81.0274 15.8619C80.6928 15.8619 80.3719 15.7295 80.1353 15.4939C79.8987 15.2584 79.7657 14.9389 79.7657 14.6057Z" fill="#AD632E"/>
<path d="M81.0301 24.5229C80.3316 24.5229 79.7653 23.9591 79.7653 23.2636C79.7653 22.5682 80.3316 22.0044 81.0301 22.0044C81.7286 22.0044 82.2949 22.5682 82.2949 23.2636C82.2949 23.9591 81.7286 24.5229 81.0301 24.5229Z" fill="#AD632E"/>
<path d="M79.7657 42.1492C79.7657 41.9007 79.8397 41.6579 79.9784 41.4513C80.117 41.2447 80.3141 41.0837 80.5446 40.9887C80.7751 40.8936 81.0288 40.8687 81.2735 40.9172C81.5183 40.9657 81.7431 41.0853 81.9195 41.2609C82.096 41.4366 82.2161 41.6604 82.2648 41.9041C82.3135 42.1478 82.2885 42.4004 82.193 42.6299C82.0975 42.8594 81.9358 43.0556 81.7283 43.1936C81.5208 43.3316 81.2769 43.4053 81.0274 43.4053C80.6928 43.4053 80.3719 43.2729 80.1353 43.0374C79.8987 42.8018 79.7657 42.4823 79.7657 42.1492Z" fill="#AD632E"/>
<path d="M81.0301 52.0632C80.3316 52.0632 79.7653 51.4994 79.7653 50.8039C79.7653 50.1085 80.3316 49.5447 81.0301 49.5447C81.7286 49.5447 82.2949 50.1085 82.2949 50.8039C82.2949 51.4994 81.7286 52.0632 81.0301 52.0632Z" fill="#AD632E"/>
<path d="M79.7657 69.6926C79.7657 69.4442 79.8397 69.2013 79.9784 68.9948C80.117 68.7882 80.3141 68.6272 80.5446 68.5321C80.7751 68.4371 81.0288 68.4122 81.2735 68.4607C81.5183 68.5091 81.7431 68.6288 81.9195 68.8044C82.096 68.9801 82.2161 69.2039 82.2648 69.4476C82.3135 69.6913 82.2885 69.9438 82.193 70.1733C82.0975 70.4028 81.9358 70.599 81.7283 70.7371C81.5208 70.8751 81.2769 70.9487 81.0274 70.9487C80.6928 70.9487 80.3719 70.8164 80.1353 70.5808C79.8987 70.3453 79.7657 70.0258 79.7657 69.6926Z" fill="#AD632E"/>
<path d="M81.0301 79.6064C80.3316 79.6064 79.7653 79.0426 79.7653 78.3471C79.7653 77.6517 80.3316 77.0879 81.0301 77.0879C81.7286 77.0879 82.2949 77.6517 82.2949 78.3471C82.2949 79.0426 81.7286 79.6064 81.0301 79.6064Z" fill="#AD632E"/>
<path d="M59.6261 14.6057C59.6261 14.3573 59.7001 14.1144 59.8387 13.9079C59.9774 13.7013 60.1744 13.5403 60.405 13.4452C60.6355 13.3502 60.8892 13.3253 61.1339 13.3737C61.3786 13.4222 61.6034 13.5418 61.7799 13.7175C61.9563 13.8932 62.0765 14.117 62.1252 14.3607C62.1739 14.6043 62.1488 14.8569 62.0533 15.0864C61.9578 15.3159 61.7962 15.5121 61.5887 15.6501C61.3812 15.7882 61.1373 15.8619 60.8878 15.8619C60.5532 15.8619 60.2322 15.7295 59.9956 15.4939C59.759 15.2584 59.6261 14.9389 59.6261 14.6057Z" fill="#AD632E"/>
<path d="M60.8905 24.5229C60.1919 24.5229 59.6256 23.9591 59.6256 23.2636C59.6256 22.5682 60.1919 22.0044 60.8905 22.0044C61.589 22.0044 62.1553 22.5682 62.1553 23.2636C62.1553 23.9591 61.589 24.5229 60.8905 24.5229Z" fill="#AD632E"/>
<path d="M59.6261 42.1492C59.6261 41.9007 59.7001 41.6579 59.8387 41.4513C59.9774 41.2447 60.1744 41.0837 60.405 40.9887C60.6355 40.8936 60.8892 40.8687 61.1339 40.9172C61.3786 40.9657 61.6034 41.0853 61.7799 41.2609C61.9563 41.4366 62.0765 41.6604 62.1252 41.9041C62.1739 42.1478 62.1488 42.4004 62.0533 42.6299C61.9578 42.8594 61.7962 43.0556 61.5887 43.1936C61.3812 43.3316 61.1373 43.4053 60.8878 43.4053C60.5532 43.4053 60.2322 43.2729 59.9956 43.0374C59.759 42.8018 59.6261 42.4823 59.6261 42.1492Z" fill="#AD632E"/>
<path d="M60.8905 52.0632C60.1919 52.0632 59.6256 51.4994 59.6256 50.8039C59.6256 50.1085 60.1919 49.5447 60.8905 49.5447C61.589 49.5447 62.1553 50.1085 62.1553 50.8039C62.1553 51.4994 61.589 52.0632 60.8905 52.0632Z" fill="#AD632E"/>
<path d="M59.6261 69.6926C59.6261 69.4442 59.7001 69.2013 59.8387 68.9948C59.9774 68.7882 60.1744 68.6272 60.405 68.5321C60.6355 68.4371 60.8892 68.4122 61.1339 68.4607C61.3786 68.5091 61.6034 68.6288 61.7799 68.8044C61.9563 68.9801 62.0765 69.2039 62.1252 69.4476C62.1739 69.6913 62.1488 69.9438 62.0533 70.1733C61.9578 70.4028 61.7962 70.599 61.5887 70.7371C61.3812 70.8751 61.1373 70.9487 60.8878 70.9487C60.5532 70.9487 60.2322 70.8164 59.9956 70.5808C59.759 70.3453 59.6261 70.0258 59.6261 69.6926Z" fill="#AD632E"/>
<path d="M60.8905 79.6064C60.1919 79.6064 59.6256 79.0426 59.6256 78.3471C59.6256 77.6517 60.1919 77.0879 60.8905 77.0879C61.589 77.0879 62.1553 77.6517 62.1553 78.3471C62.1553 79.0426 61.589 79.6064 60.8905 79.6064Z" fill="#AD632E"/>
<path d="M6.62317 14.6057C6.62317 14.3573 6.69715 14.1144 6.83578 13.9079C6.97441 13.7013 7.17146 13.5403 7.402 13.4452C7.63254 13.3502 7.8862 13.3253 8.13094 13.3737C8.37568 13.4222 8.60049 13.5418 8.77694 13.7175C8.95339 13.8932 9.07355 14.117 9.12223 14.3607C9.17092 14.6043 9.14596 14.8569 9.05047 15.0864C8.95497 15.3159 8.79321 15.5121 8.58574 15.6501C8.37826 15.7882 8.13436 15.8619 7.88483 15.8619C7.55022 15.8619 7.22925 15.7295 6.99264 15.4939C6.75603 15.2584 6.62317 14.9389 6.62317 14.6057Z" fill="#AD632E"/>
<path d="M6.62317 23.2634C6.62317 23.015 6.69715 22.7721 6.83578 22.5656C6.97441 22.359 7.17146 22.198 7.402 22.1029C7.63254 22.0078 7.8862 21.983 8.13094 22.0315C8.37568 22.0799 8.60049 22.1996 8.77694 22.3752C8.95339 22.5509 9.07355 22.7747 9.12223 23.0184C9.17092 23.262 9.14596 23.5146 9.05047 23.7441C8.95497 23.9737 8.79321 24.1698 8.58574 24.3079C8.37826 24.4459 8.13436 24.5195 7.88483 24.5195C7.55022 24.5195 7.22925 24.3872 6.99264 24.1517C6.75603 23.9161 6.62317 23.5966 6.62317 23.2634Z" fill="#AD632E"/>
<path d="M6.62317 42.1492C6.62317 41.9007 6.69715 41.6579 6.83578 41.4513C6.97441 41.2447 7.17146 41.0837 7.402 40.9887C7.63254 40.8936 7.8862 40.8687 8.13094 40.9172C8.37568 40.9657 8.60049 41.0853 8.77694 41.2609C8.95339 41.4366 9.07355 41.6604 9.12223 41.9041C9.17092 42.1478 9.14596 42.4004 9.05047 42.6299C8.95497 42.8594 8.79321 43.0556 8.58574 43.1936C8.37826 43.3316 8.13436 43.4053 7.88483 43.4053C7.55022 43.4053 7.22925 43.2729 6.99264 43.0374C6.75603 42.8018 6.62317 42.4823 6.62317 42.1492Z" fill="#AD632E"/>
<path d="M6.62317 50.8069C6.62317 50.5584 6.69715 50.3156 6.83578 50.109C6.97441 49.9024 7.17146 49.7415 7.402 49.6464C7.63254 49.5513 7.8862 49.5264 8.13094 49.5749C8.37568 49.6234 8.60049 49.743 8.77694 49.9187C8.95339 50.0944 9.07355 50.3182 9.12223 50.5619C9.17092 50.8055 9.14596 51.0581 9.05047 51.2876C8.95497 51.5171 8.79321 51.7133 8.58574 51.8513C8.37826 51.9893 8.13436 52.063 7.88483 52.063C7.55022 52.063 7.22925 51.9307 6.99264 51.6951C6.75603 51.4595 6.62317 51.14 6.62317 50.8069Z" fill="#AD632E"/>
<path d="M6.62317 69.6926C6.62317 69.4442 6.69715 69.2013 6.83578 68.9948C6.97441 68.7882 7.17146 68.6272 7.402 68.5321C7.63254 68.4371 7.8862 68.4122 8.13094 68.4607C8.37568 68.5091 8.60049 68.6288 8.77694 68.8044C8.95339 68.9801 9.07355 69.2039 9.12223 69.4476C9.17092 69.6913 9.14596 69.9438 9.05047 70.1733C8.95497 70.4028 8.79321 70.599 8.58574 70.7371C8.37826 70.8751 8.13436 70.9487 7.88483 70.9487C7.55022 70.9487 7.22925 70.8164 6.99264 70.5808C6.75603 70.3453 6.62317 70.0258 6.62317 69.6926Z" fill="#AD632E"/>
<path d="M6.62317 78.3379C6.62317 78.0895 6.69715 77.8466 6.83578 77.64C6.97441 77.4335 7.17146 77.2725 7.402 77.1774C7.63254 77.0823 7.8862 77.0575 8.13094 77.1059C8.37568 77.1544 8.60049 77.274 8.77694 77.4497C8.95339 77.6254 9.07355 77.8492 9.12223 78.0928C9.17092 78.3365 9.14596 78.5891 9.05047 78.8186C8.95497 79.0481 8.79321 79.2443 8.58574 79.3823C8.37826 79.5204 8.13436 79.594 7.88483 79.594C7.55022 79.594 7.22925 79.4616 6.99264 79.2261C6.75603 78.9905 6.62317 78.671 6.62317 78.3379Z" fill="#AD632E"/>
</g>
<defs>
<clipPath id="clip0_109_21999">
<rect width="216.419" height="400" fill="white" transform="matrix(-1 0 0 1 216.726 172.185)"/>
</clipPath>
<clipPath id="clip1_109_21999">
<rect width="216.419" height="400" fill="white" transform="matrix(-1 0 0 1 218.722 86.3333)"/>
</clipPath>
<clipPath id="clip2_109_21999">
<rect width="216.419" height="400" fill="white" transform="matrix(-1 0 0 1 218.722 0.480713)"/>
</clipPath>
</defs>
</svg>
