<svg width="368" height="92" viewBox="0 0 368 92" fill="none" xmlns="http://www.w3.org/2000/svg">
<g filter="url(#filter0_d_70_9796)">
<rect x="4.31653" y="2.47284" width="359.145" height="82.5558" fill="white"/>
</g>
<path d="M85.9706 57C85.1866 57 84.5426 56.762 84.0386 56.286C83.5626 55.782 83.3246 55.166 83.3246 54.438V30.162C83.3246 29.434 83.5626 28.832 84.0386 28.356C84.5426 27.852 85.1586 27.6 85.8866 27.6H99.5366C100.265 27.6 100.867 27.838 101.343 28.314C101.847 28.762 102.099 29.35 102.099 30.078C102.099 30.694 101.847 31.24 101.343 31.716C100.867 32.192 100.265 32.43 99.5366 32.43H88.1966L88.5746 31.926V40.368L88.2806 39.822H97.6466C98.3746 39.822 98.9766 40.06 99.4526 40.536C99.9566 40.984 100.209 41.572 100.209 42.3C100.209 42.916 99.9566 43.462 99.4526 43.938C98.9766 44.414 98.3746 44.652 97.6466 44.652H88.1966L88.5746 44.274V54.438C88.5746 55.166 88.3086 55.782 87.7766 56.286C87.2726 56.762 86.6706 57 85.9706 57ZM108.639 57C107.911 57 107.309 56.762 106.833 56.286C106.357 55.782 106.119 55.166 106.119 54.438V37.092C106.119 36.364 106.357 35.762 106.833 35.286C107.309 34.782 107.911 34.53 108.639 34.53C109.367 34.53 109.969 34.782 110.445 35.286C110.921 35.762 111.159 36.364 111.159 37.092V41.04L110.865 38.226C111.173 37.554 111.565 36.966 112.041 36.462C112.545 35.93 113.105 35.496 113.721 35.16C114.337 34.796 114.995 34.53 115.695 34.362C116.395 34.194 117.095 34.11 117.795 34.11C118.635 34.11 119.335 34.348 119.895 34.824C120.483 35.3 120.777 35.86 120.777 36.504C120.777 37.428 120.539 38.1 120.063 38.52C119.587 38.912 119.069 39.108 118.509 39.108C117.977 39.108 117.487 39.01 117.039 38.814C116.619 38.618 116.129 38.52 115.569 38.52C115.065 38.52 114.547 38.646 114.015 38.898C113.511 39.122 113.035 39.486 112.587 39.99C112.167 40.494 111.817 41.124 111.537 41.88C111.285 42.608 111.159 43.476 111.159 44.484V54.438C111.159 55.166 110.921 55.782 110.445 56.286C109.969 56.762 109.367 57 108.639 57ZM141.004 34.53C141.732 34.53 142.334 34.782 142.81 35.286C143.286 35.762 143.524 36.364 143.524 37.092V47.76C143.524 50.728 142.698 53.08 141.046 54.816C139.394 56.552 137.014 57.42 133.906 57.42C130.798 57.42 128.418 56.552 126.766 54.816C125.142 53.08 124.33 50.728 124.33 47.76V37.092C124.33 36.364 124.568 35.762 125.044 35.286C125.52 34.782 126.122 34.53 126.85 34.53C127.578 34.53 128.18 34.782 128.656 35.286C129.132 35.762 129.37 36.364 129.37 37.092V47.76C129.37 49.468 129.748 50.742 130.504 51.582C131.26 52.394 132.394 52.8 133.906 52.8C135.446 52.8 136.594 52.394 137.35 51.582C138.106 50.742 138.484 49.468 138.484 47.76V37.092C138.484 36.364 138.722 35.762 139.198 35.286C139.674 34.782 140.276 34.53 141.004 34.53ZM153.727 54.438C153.727 55.166 153.489 55.782 153.013 56.286C152.537 56.762 151.935 57 151.207 57C150.479 57 149.877 56.762 149.401 56.286C148.925 55.782 148.687 55.166 148.687 54.438V37.092C148.687 36.364 148.925 35.762 149.401 35.286C149.877 34.782 150.479 34.53 151.207 34.53C151.935 34.53 152.537 34.782 153.013 35.286C153.489 35.762 153.727 36.364 153.727 37.092V54.438ZM151.165 31.8C150.213 31.8 149.541 31.646 149.149 31.338C148.757 31.03 148.561 30.484 148.561 29.7V28.902C148.561 28.09 148.771 27.544 149.191 27.264C149.639 26.956 150.311 26.802 151.207 26.802C152.187 26.802 152.873 26.956 153.265 27.264C153.657 27.572 153.853 28.118 153.853 28.902V29.7C153.853 30.512 153.643 31.072 153.223 31.38C152.803 31.66 152.117 31.8 151.165 31.8ZM159.159 34.95H169.113C169.785 34.95 170.345 35.174 170.793 35.622C171.241 36.07 171.465 36.63 171.465 37.302C171.465 37.946 171.241 38.492 170.793 38.94C170.345 39.36 169.785 39.57 169.113 39.57H159.159C158.487 39.57 157.927 39.346 157.479 38.898C157.031 38.45 156.807 37.89 156.807 37.218C156.807 36.574 157.031 36.042 157.479 35.622C157.927 35.174 158.487 34.95 159.159 34.95ZM163.653 29.7C164.381 29.7 164.969 29.952 165.417 30.456C165.893 30.932 166.131 31.534 166.131 32.262V50.952C166.131 51.344 166.201 51.666 166.341 51.918C166.509 52.17 166.719 52.352 166.971 52.464C167.251 52.576 167.545 52.632 167.853 52.632C168.189 52.632 168.497 52.576 168.777 52.464C169.057 52.324 169.379 52.254 169.743 52.254C170.135 52.254 170.485 52.436 170.793 52.8C171.129 53.164 171.297 53.668 171.297 54.312C171.297 55.096 170.863 55.74 169.995 56.244C169.155 56.748 168.245 57 167.265 57C166.677 57 166.019 56.958 165.291 56.874C164.591 56.762 163.919 56.524 163.275 56.16C162.659 55.768 162.141 55.18 161.721 54.396C161.301 53.612 161.091 52.534 161.091 51.162V32.262C161.091 31.534 161.329 30.932 161.805 30.456C162.309 29.952 162.925 29.7 163.653 29.7ZM198.238 57C197.454 57 196.81 56.762 196.306 56.286C195.802 55.782 195.55 55.166 195.55 54.438V30.078H201.01V54.438C201.01 55.166 200.744 55.782 200.212 56.286C199.708 56.762 199.05 57 198.238 57ZM188.956 32.43C188.228 32.43 187.612 32.206 187.108 31.758C186.632 31.31 186.394 30.722 186.394 29.994C186.394 29.266 186.632 28.692 187.108 28.272C187.612 27.824 188.228 27.6 188.956 27.6H207.604C208.332 27.6 208.934 27.824 209.41 28.272C209.914 28.72 210.166 29.308 210.166 30.036C210.166 30.764 209.914 31.352 209.41 31.8C208.934 32.22 208.332 32.43 207.604 32.43H188.956ZM225.957 34.11C227.973 34.11 229.499 34.544 230.535 35.412C231.599 36.28 232.327 37.442 232.719 38.898C233.111 40.326 233.307 41.922 233.307 43.686V54.438C233.307 55.166 233.069 55.782 232.593 56.286C232.117 56.762 231.515 57 230.787 57C230.059 57 229.457 56.762 228.981 56.286C228.505 55.782 228.267 55.166 228.267 54.438V43.686C228.267 42.762 228.155 41.936 227.931 41.208C227.707 40.452 227.301 39.85 226.713 39.402C226.125 38.954 225.285 38.73 224.193 38.73C223.129 38.73 222.219 38.954 221.463 39.402C220.707 39.85 220.133 40.452 219.741 41.208C219.377 41.936 219.195 42.762 219.195 43.686V54.438C219.195 55.166 218.957 55.782 218.481 56.286C218.005 56.762 217.403 57 216.675 57C215.947 57 215.345 56.762 214.869 56.286C214.393 55.782 214.155 55.166 214.155 54.438V28.482C214.155 27.754 214.393 27.152 214.869 26.676C215.345 26.172 215.947 25.92 216.675 25.92C217.403 25.92 218.005 26.172 218.481 26.676C218.957 27.152 219.195 27.754 219.195 28.482V38.898L218.565 38.772C218.817 38.296 219.167 37.792 219.615 37.26C220.063 36.7 220.609 36.182 221.253 35.706C221.897 35.23 222.611 34.852 223.395 34.572C224.179 34.264 225.033 34.11 225.957 34.11ZM241.284 57C240.556 57 239.954 56.762 239.478 56.286C239.002 55.782 238.764 55.166 238.764 54.438V37.092C238.764 36.364 239.002 35.762 239.478 35.286C239.954 34.782 240.556 34.53 241.284 34.53C242.012 34.53 242.614 34.782 243.09 35.286C243.566 35.762 243.804 36.364 243.804 37.092V41.04L243.51 38.226C243.818 37.554 244.21 36.966 244.686 36.462C245.19 35.93 245.75 35.496 246.366 35.16C246.982 34.796 247.64 34.53 248.34 34.362C249.04 34.194 249.74 34.11 250.44 34.11C251.28 34.11 251.98 34.348 252.54 34.824C253.128 35.3 253.422 35.86 253.422 36.504C253.422 37.428 253.184 38.1 252.708 38.52C252.232 38.912 251.714 39.108 251.154 39.108C250.622 39.108 250.132 39.01 249.684 38.814C249.264 38.618 248.774 38.52 248.214 38.52C247.71 38.52 247.192 38.646 246.66 38.898C246.156 39.122 245.68 39.486 245.232 39.99C244.812 40.494 244.462 41.124 244.182 41.88C243.93 42.608 243.804 43.476 243.804 44.484V54.438C243.804 55.166 243.566 55.782 243.09 56.286C242.614 56.762 242.012 57 241.284 57ZM277.83 45.786C277.83 48.082 277.312 50.112 276.276 51.876C275.268 53.612 273.896 54.97 272.16 55.95C270.452 56.93 268.534 57.42 266.406 57.42C264.278 57.42 262.346 56.93 260.61 55.95C258.902 54.97 257.53 53.612 256.494 51.876C255.486 50.112 254.982 48.082 254.982 45.786C254.982 43.49 255.486 41.474 256.494 39.738C257.53 37.974 258.902 36.602 260.61 35.622C262.346 34.614 264.278 34.11 266.406 34.11C268.534 34.11 270.452 34.614 272.16 35.622C273.896 36.602 275.268 37.974 276.276 39.738C277.312 41.474 277.83 43.49 277.83 45.786ZM272.79 45.786C272.79 44.358 272.496 43.126 271.908 42.09C271.348 41.026 270.578 40.2 269.598 39.612C268.646 39.024 267.582 38.73 266.406 38.73C265.23 38.73 264.152 39.024 263.172 39.612C262.22 40.2 261.45 41.026 260.862 42.09C260.302 43.126 260.022 44.358 260.022 45.786C260.022 47.186 260.302 48.418 260.862 49.482C261.45 50.518 262.22 51.33 263.172 51.918C264.152 52.506 265.23 52.8 266.406 52.8C267.582 52.8 268.646 52.506 269.598 51.918C270.578 51.33 271.348 50.518 271.908 49.482C272.496 48.418 272.79 47.186 272.79 45.786ZM308.113 34.53C308.757 34.53 309.316 34.782 309.792 35.286C310.268 35.762 310.506 36.378 310.506 37.134C310.506 37.33 310.492 37.512 310.465 37.68C310.437 37.82 310.395 37.96 310.338 38.1L303.912 55.404C303.716 55.964 303.366 56.398 302.863 56.706C302.359 56.986 301.826 57.084 301.266 57C300.314 56.944 299.6 56.412 299.124 55.404L294.966 43.434L296.058 43.476L292.152 55.404C291.676 56.412 290.962 56.944 290.01 57C289.478 57.084 288.946 56.986 288.414 56.706C287.91 56.398 287.56 55.964 287.364 55.404L280.938 38.1C280.826 37.792 280.77 37.47 280.77 37.134C280.77 36.462 280.994 35.86 281.442 35.328C281.89 34.796 282.506 34.53 283.29 34.53C283.822 34.53 284.298 34.656 284.718 34.908C285.138 35.16 285.432 35.566 285.6 36.126L290.682 49.902L289.632 49.818L293.454 39.444C293.902 38.408 294.672 37.89 295.764 37.89C296.38 37.89 296.842 38.03 297.15 38.31C297.486 38.562 297.752 38.94 297.948 39.444L301.77 49.818L300.51 49.986L305.676 36.126C306.012 35.062 306.825 34.53 308.113 34.53Z" fill="black"/>
<g clip-path="url(#clip0_70_9796)">
<path d="M29.9922 39.6372C29.0937 40.4917 29.0937 41.8794 29.9922 42.7339L43.7922 55.8589C44.6906 56.7134 46.1497 56.7134 47.0481 55.8589C47.9466 55.0044 47.9466 53.6167 47.0481 52.7622L34.8725 41.1821L47.0409 29.6021C47.9394 28.7476 47.9394 27.3599 47.0409 26.5054C46.1425 25.6509 44.6834 25.6509 43.785 26.5054L29.985 39.6304L29.9922 39.6372Z" fill="black"/>
</g>
<defs>
<filter id="filter0_d_70_9796" x="0.316528" y="0.472839" width="367.144" height="90.5558" filterUnits="userSpaceOnUse" color-interpolation-filters="sRGB">
<feFlood flood-opacity="0" result="BackgroundImageFix"/>
<feColorMatrix in="SourceAlpha" type="matrix" values="0 0 0 0 0 0 0 0 0 0 0 0 0 0 0 0 0 0 127 0" result="hardAlpha"/>
<feMorphology radius="2" operator="dilate" in="SourceAlpha" result="effect1_dropShadow_70_9796"/>
<feOffset dy="2"/>
<feGaussianBlur stdDeviation="1"/>
<feComposite in2="hardAlpha" operator="out"/>
<feColorMatrix type="matrix" values="0 0 0 0 0 0 0 0 0 0 0 0 0 0 0 0 0 0 0.05 0"/>
<feBlend mode="normal" in2="BackgroundImageFix" result="effect1_dropShadow_70_9796"/>
<feBlend mode="normal" in="SourceGraphic" in2="effect1_dropShadow_70_9796" result="shape"/>
</filter>
<clipPath id="clip0_70_9796">
<rect width="23" height="35" fill="white" transform="translate(29.3165 23.6821)"/>
</clipPath>
</defs>
</svg>
