<svg width="28" height="32" viewBox="0 0 28 32" fill="none" xmlns="http://www.w3.org/2000/svg">
<path d="M24.6909 16.1622C24.6909 23.5247 19.6489 29.4932 13.4293 29.4932C7.20971 29.4932 2.16772 23.5247 2.16772 16.1622C2.16772 8.7997 7.20971 2.83121 13.4293 2.83121C19.6489 2.83121 24.6909 8.7997 24.6909 16.1622Z" fill="white"/>
<path fill-rule="evenodd" clip-rule="evenodd" d="M13.6073 0.826447C8.57329 0.826447 3.97307 3.02448 1.69078 7.82382L1.6499 7.9098L1.62021 8.00026C0.829532 10.4095 0.370307 12.9158 0.25524 15.4497L0.198975 16.786L0.263295 16.8425C0.291992 19.3012 0.884208 21.7218 1.99579 23.9159C4.25523 28.3783 8.59014 31.4979 13.6676 31.4979C18.7472 31.4979 23.1363 28.3408 25.3866 23.8296L25.3877 23.8274C26.5044 21.5797 27.0813 19.101 27.0728 16.5896L27.0727 16.5449L27.0699 16.5003C27.0634 16.3975 27.0561 16.2593 27.0481 16.1085L27.0478 16.103C27.0361 15.8813 27.023 15.6332 27.009 15.4311L27.0083 15.422C26.9807 15.0576 26.9403 14.7019 26.8919 14.3561C26.7106 12.1925 26.2748 10.0579 25.5934 7.9971L25.564 7.90829L25.5238 7.82382C23.2415 3.02447 18.6413 0.826447 13.6073 0.826447ZM3.25727 15.4783C3.36634 13.2851 3.76422 11.1162 4.4405 9.02814C6.13296 5.55369 9.49453 3.82645 13.6073 3.82645C17.7206 3.82645 21.0826 5.55418 22.7748 9.02959C23.3691 10.8506 23.7487 12.7356 23.9057 14.6459L23.9093 14.6902L23.9156 14.7342C23.9589 15.0391 23.9936 15.3418 24.0165 15.6437C24.0174 15.6564 24.0182 15.6689 24.0191 15.6812C22.9593 16.7046 21.7491 17.5611 20.4297 18.2205C19.588 17.4548 18.6208 16.8366 17.5688 16.3937C16.3305 15.8724 15.0004 15.6052 13.6577 15.6072L13.6534 15.6072C13.6739 14.5513 13.5801 13.4953 13.373 12.4578C13.312 12.1291 13.1206 11.3329 12.3083 11.1143C11.9084 11.0066 11.4968 11.2435 11.3891 11.6435C11.2881 12.0188 11.4905 12.4044 11.8464 12.5394C11.8512 12.5509 11.8566 12.5655 11.8624 12.5836C11.8755 12.6244 11.8877 12.6746 11.8989 12.7353L11.8988 12.7353L11.901 12.7465C12.097 13.7267 12.1804 14.7252 12.1501 15.7228C11.2402 15.862 10.3517 16.126 9.50993 16.5091C8.47126 16.9818 7.52247 17.6273 6.70317 18.4165C5.4583 17.8373 4.3004 17.0885 3.26232 16.192V15.4827L3.25727 15.4783ZM3.44938 18.8596C4.42146 19.5246 5.463 20.0875 6.55774 20.5374L7.21092 20.8058L7.21209 20.8045L7.21523 20.8058L7.68667 20.28C8.42785 19.4534 9.33218 18.7893 10.3427 18.3294C11.3532 17.8696 12.448 17.6239 13.5581 17.608C13.5924 17.6076 13.6266 17.6073 13.6608 17.6072C14.7346 17.6062 15.7982 17.8202 16.7885 18.2371C17.8118 18.6678 18.7348 19.3058 19.4993 20.1109L19.9848 20.622L19.9879 20.6207L19.9892 20.622L20.6338 20.3366C21.819 19.8116 22.9347 19.1504 23.9595 18.3686C23.7703 19.7993 23.3466 21.1928 22.7017 22.4912C20.8788 26.1452 17.4402 28.4979 13.6676 28.4979C9.89259 28.4979 6.50297 26.1766 4.67194 22.56C4.07993 21.3915 3.66899 20.1437 3.44938 18.8596ZM9.84564 19.926C10.0255 19.5528 10.4737 19.3961 10.8469 19.5759L13.335 20.7748L15.8157 19.5762C16.1887 19.396 16.6371 19.5523 16.8173 19.9253C16.9975 20.2982 16.8413 20.7467 16.4683 20.9269L13.3358 22.4403L10.1957 20.9272C9.82256 20.7474 9.66583 20.2991 9.84564 19.926ZM6.2699 13.1356C6.2699 12.005 7.18642 11.0885 8.317 11.0885C9.44758 11.0885 10.3641 12.005 10.3641 13.1356C10.3641 14.2662 9.44758 15.1827 8.317 15.1827C7.18642 15.1827 6.2699 14.2662 6.2699 13.1356ZM15.7821 13.1356C15.7821 12.005 16.6986 11.0885 17.8292 11.0885C18.9598 11.0885 19.8763 12.005 19.8763 13.1356C19.8763 14.2662 18.9598 15.1827 17.8292 15.1827C16.6986 15.1827 15.7821 14.2662 15.7821 13.1356Z" fill="#FF403D"/>
</svg>
